<svg width="16" height="16" viewBox="0 0 16 16" fill="none" xmlns="http://www.w3.org/2000/svg">
<path d="M14.6363 15.697C14.9292 15.9899 15.404 15.9899 15.6969 15.697C15.9898 15.4041 15.9898 14.9292 15.6969 14.6363L14.6363 15.697ZM11.9166 6.83334C11.9166 9.64078 9.64072 11.9167 6.83327 11.9167V13.4167C10.4691 13.4167 13.4166 10.4692 13.4166 6.83334H11.9166ZM6.83327 11.9167C4.02583 11.9167 1.74994 9.64078 1.74994 6.83334H0.249939C0.249939 10.4692 3.1974 13.4167 6.83327 13.4167V11.9167ZM1.74994 6.83334C1.74994 4.02589 4.02583 1.75 6.83327 1.75V0.25C3.1974 0.25 0.249939 3.19746 0.249939 6.83334H1.74994ZM6.83327 1.75C9.64072 1.75 11.9166 4.02589 11.9166 6.83334H13.4166C13.4166 3.19746 10.4691 0.25 6.83327 0.25V1.75ZM10.4696 11.5303L14.6363 15.697L15.6969 14.6363L11.5303 10.4697L10.4696 11.5303Z" fill="#807D7E"/>
</svg>
